# File created by Blade
# Date/Time:  Thu Sep 25 21:01:51 2014
# Frame Rate: 120.000 fps
#------------------------------------------------------
:FULLY-SPECIFIED
:DEGREES
4002
root -4.270506 18.016852 -9.995697 10.619970 -25.233151 7.046259
Spine -10.861731 17.038981 -9.461462
Head -9.231147 -5.798060 7.658272
LeftShoulder -16.078806 25.258415 12.965885
LeftArm 5.397509 9.452120 -79.669589
LeftForeArm 5.555795 -0.000000 23.175816
LeftHand -22.309655 -0.000000 -4.284989
LeftHandThumb1 -26.253704 0.000000 33.147579
RightShoulder -18.906328 6.587806 -19.317974
RightArm -24.892291 -42.413099 94.223346
RightForeArm -22.013871 -0.000000 39.069560
RightHand -5.067106 -0.000000 11.373067
RightHandThumb1 -24.326973 -0.000000 -32.862282
LeftUpLeg -90.772151 21.876710 -5.169487
LeftLeg 51.198308 -0.000000 -0.000000
LeftFoot 29.571383 5.779840 -12.132633
LeftToeBase 1.907565 -0.000000 -0.000000
RightUpLeg -14.845537 11.805622 -8.030548
RightLeg 109.100383 -0.000000 -0.000000
RightFoot 10.026658 -9.389734 -7.639584
RightToeBase -68.364719 -0.000000 0.000000
4003
root -4.289840 18.027446 -10.051732 10.069277 -24.690962 7.412584
Spine -10.753575 16.881211 -9.813074
Head -8.817502 -5.970052 7.782159
LeftShoulder -16.022372 25.228097 12.754801
LeftArm 5.588208 9.983676 -79.562022
LeftForeArm 5.228358 0.000000 22.253663
LeftHand -22.209767 -0.000000 -4.459164
LeftHandThumb1 -26.253704 0.000000 33.147579
RightShoulder -18.960934 6.287930 -19.256053
RightArm -25.488313 -42.274126 94.226490
RightForeArm -21.854587 -0.000000 38.691676
RightHand -5.063977 -0.000000 11.463222
RightHandThumb1 -24.326973 -0.000000 -32.862282
LeftUpLeg -91.328337 21.415097 -5.693539
LeftLeg 53.192719 -0.000000 -0.000000
LeftFoot 29.379860 5.677702 -12.224771
LeftToeBase -1.499024 -0.000000 0.000000
RightUpLeg -14.395781 11.284902 -8.070059
RightLeg 109.197456 -0.000000 -0.000000
RightFoot 9.905667 -9.326485 -7.502105
RightToeBase -68.305475 -0.000000 0.000000
4004
root -4.314277 18.035642 -10.101662 9.549614 -24.106990 7.698059
Spine -10.586198 16.694643 -10.066414
Head -8.465033 -6.119986 7.831707
LeftShoulder -15.948044 25.081480 12.538434
LeftArm 5.700348 10.501956 -79.438294
LeftForeArm 4.742577 -0.000000 21.401287
LeftHand -22.437833 0.000000 -4.534824
LeftHandThumb1 -26.253704 0.000000 33.147579
RightShoulder -19.020749 6.073491 -19.296794
RightArm -26.152720 -42.140189 94.401319
RightForeArm -21.776784 -0.000000 38.185181
RightHand -5.080552 -0.000000 11.597316
RightHandThumb1 -24.326973 -0.000000 -32.862282
LeftUpLeg -91.925806 20.910300 -6.042561
LeftLeg 55.542695 -0.000000 -0.000000
LeftFoot 28.614458 5.283419 -11.844383
LeftToeBase -3.248663 -0.000000 0.000000
RightUpLeg -13.925461 10.813084 -8.038388
RightLeg 109.280892 -0.000000 -0.000000
RightFoot 9.760316 -9.078693 -7.202882
RightToeBase -68.361233 -0.000000 0.000000
4005
root -4.341931 18.037342 -10.152872 9.089788 -23.525816 7.900633
Spine -10.410597 16.486429 -10.258584
Head -8.213126 -6.246346 7.912275
LeftShoulder -15.848183 25.003371 12.379334
LeftArm 5.867292 10.826841 -79.393907
LeftForeArm 4.217203 0.000000 20.644804
LeftHand -22.536942 -0.000000 -4.688129
LeftHandThumb1 -26.253704 0.000000 33.147579
RightShoulder -19.022812 5.836227 -19.347219
RightArm -26.735366 -41.999217 94.550238
RightForeArm -21.792287 -0.000000 37.664510
RightHand -5.010251 -0.000000 11.900441
RightHandThumb1 -24.326973 -0.000000 -32.862282
LeftUpLeg -92.571000 20.404048 -6.173408
LeftLeg 58.148473 -0.000000 -0.000000
LeftFoot 27.500769 4.852854 -11.728720
LeftToeBase -3.823836 -0.000000 0.000000
RightUpLeg -13.514228 10.328310 -7.890380
RightLeg 109.401299 -0.000000 -0.000000
RightFoot 9.768567 -9.016105 -7.090774
RightToeBase -68.133264 -0.000000 0.000000
